<svg xmlns="http://www.w3.org/2000/svg" viewBox="0 0 99.65 113.09"><title>cat</title><path d="M7185.09,7253.54h30.1c11.13-1,21-8.16,23.54-10.78,6.25-6.41,7.81-14.84,8-24.53s-1.25-24.06-8-41.72c-4.62-12.14-12.27-24.07-16.6-30.33a4,4,0,0,0-6.51-.1l-3.78,5.11a4,4,0,0,1-3.66,1.59,82.23,82.23,0,0,0-18.57,0,4,4,0,0,1-3.68-1.59l-3.78-5.11a4,4,0,0,0-6.51.1c-4.33,6.26-12,18.18-16.6,30.33-6.72,17.66-8.12,32-8,41.72s1.72,18.13,8,24.53c9.44,9.67,22.64,10.81,26,10.78" transform="translate(-7149.06 -7142.45)" style="fill:none;stroke:#000;stroke-linecap:round;stroke-linejoin:round;stroke-width:4px"/><circle cx="32.7" cy="36.41" r="5.57"/><circle cx="67.74" cy="36.41" r="5.57"/><path d="M7207.57,7186.91c-4.46,0-8.07-3.28-8.07-7.32,0,4-3.61,7.32-8.07,7.32" transform="translate(-7149.06 -7142.45)" style="fill:none;stroke:#000;stroke-linecap:round;stroke-linejoin:round;stroke-width:3.7579336166381836px"/></svg>