<svg xmlns="http://www.w3.org/2000/svg" width="349" height="148" viewBox="0 0 349 148">
  <g fill="none" fill-rule="evenodd" transform="translate(0 -148)">
    <path fill="#4D4D4D" fill-rule="nonzero" d="M286.64893,52.9280126 C315.016786,72.1634881 343.684038,89.9020394 348.32469,114.451596 C352.890493,138.926306 333.429695,170.212021 316.289223,192.890422 C299.148751,215.568823 284.328605,229.63991 269.957554,241.540457 C255.586503,253.51585 241.739397,263.245857 227.218647,264.817627 C212.697898,266.314552 197.503506,259.578393 166.366229,268.260553 C135.154103,276.942713 88.073942,301.043192 54.5414902,295.055495 C21.0838875,289.142645 1.24884343,253.141619 0.0512558649,217.065747 C-1.07148248,180.989874 16.4432357,144.76431 33.658557,109.062669 C50.9487275,73.3610274 67.8646518,38.1084635 95.8582612,18.7232956 C123.92672,-0.661872267 162.998014,-4.17964404 196.605315,4.42766987 C230.212616,13.0349838 258.281075,33.6925372 286.64893,52.9280126 Z"/>
    <path fill="#F0F0F0" fill-rule="nonzero" d="M65.7437598,233.992634 L59.6185647,233.992634 L59.6185647,215.594843 L65.7437598,215.594843 L65.7437598,209.462247 L71.8689548,209.462247 L71.8689548,221.72744 L65.7437598,221.72744 L65.7437598,233.992634 Z M71.8689548,178.799263 L65.7437598,178.799263 L65.7437598,184.93186 L71.8689548,184.93186 L71.8689548,178.799263 Z M84.1193448,203.32965 L84.1193448,209.462247 L96.3697348,209.462247 L96.3697348,203.32965 L84.1193448,203.32965 Z M102.49493,191.064457 L96.3697348,191.064457 L96.3697348,203.32965 L102.49493,203.32965 L102.49493,191.064457 Z M71.8689548,178.799263 L77.9941498,178.799263 L77.9941498,172.666667 L71.8689548,172.666667 L71.8689548,178.799263 Z M84.1193448,203.32965 L84.1193448,197.197053 L77.9941498,197.197053 L77.9941498,191.064457 L71.8689548,191.064457 L71.8689548,203.32965 L65.7437598,203.32965 L65.7437598,209.462247 L59.6185647,209.462247 L59.6185647,215.594843 L53.4933697,215.594843 L53.4933697,233.992634 L59.6185647,233.992634 L59.6185647,240.12523 L65.7437598,240.12523 L65.7437598,233.992634 L71.8689548,233.992634 L71.8689548,221.72744 L77.9941498,221.72744 L77.9941498,203.32965 L84.1193448,203.32965 Z M84.1193448,178.799263 L77.9941498,178.799263 L77.9941498,191.064457 L84.1193448,191.064457 L84.1193448,178.799263 Z M96.3697348,178.799263 L96.3697348,172.666667 L84.1193448,172.666667 L84.1193448,178.799263 L96.3697348,178.799263 Z M102.49493,184.93186 L102.49493,178.799263 L96.3697348,178.799263 L96.3697348,184.93186 L102.49493,184.93186 Z M102.49493,191.064457 L108.620125,191.064457 L108.620125,184.93186 L102.49493,184.93186 L102.49493,191.064457 Z M133.120905,166.53407 L133.120905,160.401473 L126.99571,160.401473 L126.99571,166.53407 L133.120905,166.53407 Z M114.74532,197.197053 L108.620125,197.197053 L108.620125,203.32965 L114.74532,203.32965 L114.74532,197.197053 Z M139.2461,203.32965 L145.371295,203.32965 L145.371295,197.197053 L139.2461,197.197053 L139.2461,203.32965 Z M126.99571,203.32965 L126.99571,209.462247 L139.2461,209.462247 L139.2461,203.32965 L126.99571,203.32965 Z M126.99571,184.93186 L133.120905,184.93186 L133.120905,172.666667 L126.99571,172.666667 L126.99571,184.93186 Z M126.99571,184.93186 L120.870515,184.93186 L120.870515,191.064457 L114.74532,191.064457 L114.74532,197.197053 L120.870515,197.197053 L120.870515,203.32965 L126.99571,203.32965 L126.99571,184.93186 Z M175.99727,178.799263 L175.99727,184.93186 L182.122465,184.93186 L182.122465,178.799263 L175.99727,178.799263 Z M175.99727,203.32965 L182.122465,203.32965 L182.122465,197.197053 L175.99727,197.197053 L175.99727,203.32965 Z M151.49649,203.32965 L151.49649,209.462247 L175.99727,209.462247 L175.99727,203.32965 L151.49649,203.32965 Z M151.49649,191.064457 L145.371295,191.064457 L145.371295,203.32965 L151.49649,203.32965 L151.49649,191.064457 Z M157.621685,178.799263 L151.49649,178.799263 L151.49649,191.064457 L157.621685,191.064457 L157.621685,178.799263 Z M175.99727,178.799263 L175.99727,172.666667 L157.621685,172.666667 L157.621685,178.799263 L175.99727,178.799263 Z M188.24766,197.197053 L182.122465,197.197053 L182.122465,203.32965 L188.24766,203.32965 L188.24766,197.197053 Z M218.873635,203.32965 L224.99883,203.32965 L224.99883,197.197053 L218.873635,197.197053 L218.873635,203.32965 Z M200.49805,203.32965 L200.49805,209.462247 L218.873635,209.462247 L218.873635,203.32965 L200.49805,203.32965 Z M200.49805,184.93186 L206.623245,184.93186 L206.623245,178.799263 L218.873635,178.799263 L218.873635,172.666667 L206.623245,172.666667 L206.623245,160.401473 L200.49805,160.401473 L200.49805,172.666667 L194.372855,172.666667 L194.372855,178.799263 L200.49805,178.799263 L200.49805,184.93186 Z M200.49805,184.93186 L194.372855,184.93186 L194.372855,191.064457 L188.24766,191.064457 L188.24766,197.197053 L194.372855,197.197053 L194.372855,203.32965 L200.49805,203.32965 L200.49805,184.93186 Z M249.49961,203.32965 L231.124025,203.32965 L231.124025,184.93186 L243.374415,184.93186 L243.374415,178.799263 L249.49961,178.799263 L249.49961,184.93186 L255.624805,184.93186 L255.624805,197.197053 L249.49961,197.197053 L249.49961,203.32965 Z M249.49961,203.32965 L255.624805,203.32965 L255.624805,197.197053 L261.75,197.197053 L261.75,184.93186 L255.624805,184.93186 L255.624805,178.799263 L249.49961,178.799263 L249.49961,172.666667 L237.24922,172.666667 L237.24922,178.799263 L231.124025,178.799263 L231.124025,184.93186 L224.99883,184.93186 L224.99883,203.32965 L231.124025,203.32965 L231.124025,209.462247 L249.49961,209.462247 L249.49961,203.32965 Z"/>
  </g>
</svg>
